<mxfile host="app.diagrams.net" agent="Mozilla/5.0 (Windows NT 10.0; Win64; x64) AppleWebKit/537.36 (KHTML, like Gecko) Chrome/141.0.0.0 Safari/537.36" version="28.2.7">
  <diagram name="Trang-1" id="n2l8kIQzBQYOINg-zM32">
    <mxGraphModel dx="1042" dy="692" grid="1" gridSize="10" guides="1" tooltips="1" connect="1" arrows="1" fold="1" page="1" pageScale="1" pageWidth="827" pageHeight="1169" math="0" shadow="0">
      <root>
        <mxCell id="hFkE5j2ccfjkZ-3ddx9P-0" />
        <mxCell id="hFkE5j2ccfjkZ-3ddx9P-1" parent="hFkE5j2ccfjkZ-3ddx9P-0" />
        <mxCell id="kLzKTiCbfdV_G4Um-5X8-1" style="edgeStyle=orthogonalEdgeStyle;rounded=0;orthogonalLoop=1;jettySize=auto;html=1;exitX=0.5;exitY=1;exitDx=0;exitDy=0;" edge="1" parent="hFkE5j2ccfjkZ-3ddx9P-1" source="kLzKTiCbfdV_G4Um-5X8-0">
          <mxGeometry relative="1" as="geometry">
            <mxPoint x="400" y="130" as="targetPoint" />
          </mxGeometry>
        </mxCell>
        <mxCell id="kLzKTiCbfdV_G4Um-5X8-0" value="Bắt đầu" style="ellipse;whiteSpace=wrap;html=1;" vertex="1" parent="hFkE5j2ccfjkZ-3ddx9P-1">
          <mxGeometry x="340" y="10" width="120" height="80" as="geometry" />
        </mxCell>
        <mxCell id="kLzKTiCbfdV_G4Um-5X8-3" style="edgeStyle=orthogonalEdgeStyle;rounded=0;orthogonalLoop=1;jettySize=auto;html=1;exitX=0.5;exitY=1;exitDx=0;exitDy=0;" edge="1" parent="hFkE5j2ccfjkZ-3ddx9P-1" source="kLzKTiCbfdV_G4Um-5X8-2">
          <mxGeometry relative="1" as="geometry">
            <mxPoint x="400" y="220" as="targetPoint" />
          </mxGeometry>
        </mxCell>
        <mxCell id="kLzKTiCbfdV_G4Um-5X8-2" value="nhập 3 cạnh a,b,c" style="shape=parallelogram;perimeter=parallelogramPerimeter;whiteSpace=wrap;html=1;fixedSize=1;" vertex="1" parent="hFkE5j2ccfjkZ-3ddx9P-1">
          <mxGeometry x="340" y="130" width="120" height="60" as="geometry" />
        </mxCell>
        <mxCell id="kLzKTiCbfdV_G4Um-5X8-6" style="edgeStyle=orthogonalEdgeStyle;rounded=0;orthogonalLoop=1;jettySize=auto;html=1;exitX=0.5;exitY=1;exitDx=0;exitDy=0;" edge="1" parent="hFkE5j2ccfjkZ-3ddx9P-1" source="kLzKTiCbfdV_G4Um-5X8-5">
          <mxGeometry relative="1" as="geometry">
            <mxPoint x="400" y="330" as="targetPoint" />
          </mxGeometry>
        </mxCell>
        <mxCell id="kLzKTiCbfdV_G4Um-5X8-11" value="Đ" style="edgeLabel;html=1;align=center;verticalAlign=middle;resizable=0;points=[];" vertex="1" connectable="0" parent="kLzKTiCbfdV_G4Um-5X8-6">
          <mxGeometry x="-0.4667" relative="1" as="geometry">
            <mxPoint as="offset" />
          </mxGeometry>
        </mxCell>
        <mxCell id="kLzKTiCbfdV_G4Um-5X8-7" style="edgeStyle=orthogonalEdgeStyle;rounded=0;orthogonalLoop=1;jettySize=auto;html=1;exitX=1;exitY=0.5;exitDx=0;exitDy=0;" edge="1" parent="hFkE5j2ccfjkZ-3ddx9P-1" source="kLzKTiCbfdV_G4Um-5X8-5">
          <mxGeometry relative="1" as="geometry">
            <mxPoint x="500" y="260" as="targetPoint" />
          </mxGeometry>
        </mxCell>
        <mxCell id="kLzKTiCbfdV_G4Um-5X8-8" value="S" style="edgeLabel;html=1;align=center;verticalAlign=middle;resizable=0;points=[];" vertex="1" connectable="0" parent="kLzKTiCbfdV_G4Um-5X8-7">
          <mxGeometry x="-0.0867" relative="1" as="geometry">
            <mxPoint as="offset" />
          </mxGeometry>
        </mxCell>
        <mxCell id="kLzKTiCbfdV_G4Um-5X8-5" value="a+b&amp;gt;c&lt;div&gt;a+c&amp;gt;b&lt;/div&gt;&lt;div&gt;b+c&amp;gt;a&lt;/div&gt;" style="rhombus;whiteSpace=wrap;html=1;" vertex="1" parent="hFkE5j2ccfjkZ-3ddx9P-1">
          <mxGeometry x="360" y="220" width="80" height="80" as="geometry" />
        </mxCell>
        <mxCell id="kLzKTiCbfdV_G4Um-5X8-9" value="không phải tam giác" style="shape=parallelogram;perimeter=parallelogramPerimeter;whiteSpace=wrap;html=1;fixedSize=1;" vertex="1" parent="hFkE5j2ccfjkZ-3ddx9P-1">
          <mxGeometry x="490" y="230" width="140" height="60" as="geometry" />
        </mxCell>
        <mxCell id="kLzKTiCbfdV_G4Um-5X8-12" style="edgeStyle=orthogonalEdgeStyle;rounded=0;orthogonalLoop=1;jettySize=auto;html=1;exitX=1;exitY=0.5;exitDx=0;exitDy=0;" edge="1" parent="hFkE5j2ccfjkZ-3ddx9P-1" source="kLzKTiCbfdV_G4Um-5X8-10">
          <mxGeometry relative="1" as="geometry">
            <mxPoint x="510" y="370" as="targetPoint" />
          </mxGeometry>
        </mxCell>
        <mxCell id="kLzKTiCbfdV_G4Um-5X8-13" value="Đ" style="edgeLabel;html=1;align=center;verticalAlign=middle;resizable=0;points=[];" vertex="1" connectable="0" parent="kLzKTiCbfdV_G4Um-5X8-12">
          <mxGeometry x="-0.0171" y="1" relative="1" as="geometry">
            <mxPoint as="offset" />
          </mxGeometry>
        </mxCell>
        <mxCell id="kLzKTiCbfdV_G4Um-5X8-15" style="edgeStyle=orthogonalEdgeStyle;rounded=0;orthogonalLoop=1;jettySize=auto;html=1;exitX=0.5;exitY=1;exitDx=0;exitDy=0;" edge="1" parent="hFkE5j2ccfjkZ-3ddx9P-1" source="kLzKTiCbfdV_G4Um-5X8-10">
          <mxGeometry relative="1" as="geometry">
            <mxPoint x="400" y="450" as="targetPoint" />
          </mxGeometry>
        </mxCell>
        <mxCell id="kLzKTiCbfdV_G4Um-5X8-16" value="S" style="edgeLabel;html=1;align=center;verticalAlign=middle;resizable=0;points=[];" vertex="1" connectable="0" parent="kLzKTiCbfdV_G4Um-5X8-15">
          <mxGeometry x="-0.15" y="-2" relative="1" as="geometry">
            <mxPoint as="offset" />
          </mxGeometry>
        </mxCell>
        <mxCell id="kLzKTiCbfdV_G4Um-5X8-10" value="a=b=c" style="rhombus;whiteSpace=wrap;html=1;" vertex="1" parent="hFkE5j2ccfjkZ-3ddx9P-1">
          <mxGeometry x="360" y="330" width="80" height="80" as="geometry" />
        </mxCell>
        <mxCell id="kLzKTiCbfdV_G4Um-5X8-31" style="edgeStyle=orthogonalEdgeStyle;rounded=0;orthogonalLoop=1;jettySize=auto;html=1;exitX=1;exitY=0.5;exitDx=0;exitDy=0;entryX=0.5;entryY=0;entryDx=0;entryDy=0;" edge="1" parent="hFkE5j2ccfjkZ-3ddx9P-1" source="kLzKTiCbfdV_G4Um-5X8-14" target="kLzKTiCbfdV_G4Um-5X8-28">
          <mxGeometry relative="1" as="geometry" />
        </mxCell>
        <mxCell id="kLzKTiCbfdV_G4Um-5X8-14" value="tam giác đều" style="shape=parallelogram;perimeter=parallelogramPerimeter;whiteSpace=wrap;html=1;fixedSize=1;" vertex="1" parent="hFkE5j2ccfjkZ-3ddx9P-1">
          <mxGeometry x="500" y="340" width="120" height="60" as="geometry" />
        </mxCell>
        <mxCell id="kLzKTiCbfdV_G4Um-5X8-22" style="edgeStyle=orthogonalEdgeStyle;rounded=0;orthogonalLoop=1;jettySize=auto;html=1;exitX=1;exitY=0.5;exitDx=0;exitDy=0;" edge="1" parent="hFkE5j2ccfjkZ-3ddx9P-1" source="kLzKTiCbfdV_G4Um-5X8-18">
          <mxGeometry relative="1" as="geometry">
            <mxPoint x="510" y="495" as="targetPoint" />
          </mxGeometry>
        </mxCell>
        <mxCell id="kLzKTiCbfdV_G4Um-5X8-23" value="Đ" style="edgeLabel;html=1;align=center;verticalAlign=middle;resizable=0;points=[];" vertex="1" connectable="0" parent="kLzKTiCbfdV_G4Um-5X8-22">
          <mxGeometry x="-0.024" y="2" relative="1" as="geometry">
            <mxPoint as="offset" />
          </mxGeometry>
        </mxCell>
        <mxCell id="kLzKTiCbfdV_G4Um-5X8-25" style="edgeStyle=orthogonalEdgeStyle;rounded=0;orthogonalLoop=1;jettySize=auto;html=1;exitX=0.5;exitY=1;exitDx=0;exitDy=0;" edge="1" parent="hFkE5j2ccfjkZ-3ddx9P-1" source="kLzKTiCbfdV_G4Um-5X8-18">
          <mxGeometry relative="1" as="geometry">
            <mxPoint x="400" y="580" as="targetPoint" />
          </mxGeometry>
        </mxCell>
        <mxCell id="kLzKTiCbfdV_G4Um-5X8-26" value="S" style="edgeLabel;html=1;align=center;verticalAlign=middle;resizable=0;points=[];" vertex="1" connectable="0" parent="kLzKTiCbfdV_G4Um-5X8-25">
          <mxGeometry relative="1" as="geometry">
            <mxPoint as="offset" />
          </mxGeometry>
        </mxCell>
        <mxCell id="kLzKTiCbfdV_G4Um-5X8-18" value="a=b or a=c or b=c" style="rhombus;whiteSpace=wrap;html=1;" vertex="1" parent="hFkE5j2ccfjkZ-3ddx9P-1">
          <mxGeometry x="340" y="450" width="120" height="90" as="geometry" />
        </mxCell>
        <mxCell id="kLzKTiCbfdV_G4Um-5X8-24" value="tam giác cân" style="shape=parallelogram;perimeter=parallelogramPerimeter;whiteSpace=wrap;html=1;fixedSize=1;" vertex="1" parent="hFkE5j2ccfjkZ-3ddx9P-1">
          <mxGeometry x="500" y="470" width="120" height="60" as="geometry" />
        </mxCell>
        <mxCell id="kLzKTiCbfdV_G4Um-5X8-29" style="edgeStyle=orthogonalEdgeStyle;rounded=0;orthogonalLoop=1;jettySize=auto;html=1;exitX=1;exitY=0.5;exitDx=0;exitDy=0;entryX=0.5;entryY=1;entryDx=0;entryDy=0;" edge="1" parent="hFkE5j2ccfjkZ-3ddx9P-1" source="kLzKTiCbfdV_G4Um-5X8-27" target="kLzKTiCbfdV_G4Um-5X8-28">
          <mxGeometry relative="1" as="geometry" />
        </mxCell>
        <mxCell id="kLzKTiCbfdV_G4Um-5X8-27" value="tam giác thường" style="shape=parallelogram;perimeter=parallelogramPerimeter;whiteSpace=wrap;html=1;fixedSize=1;" vertex="1" parent="hFkE5j2ccfjkZ-3ddx9P-1">
          <mxGeometry x="340" y="584.5" width="120" height="60" as="geometry" />
        </mxCell>
        <mxCell id="kLzKTiCbfdV_G4Um-5X8-28" value="kết thúc" style="ellipse;whiteSpace=wrap;html=1;" vertex="1" parent="hFkE5j2ccfjkZ-3ddx9P-1">
          <mxGeometry x="700" y="400" width="120" height="80" as="geometry" />
        </mxCell>
        <mxCell id="kLzKTiCbfdV_G4Um-5X8-30" style="edgeStyle=orthogonalEdgeStyle;rounded=0;orthogonalLoop=1;jettySize=auto;html=1;exitX=1;exitY=0.5;exitDx=0;exitDy=0;entryX=0.337;entryY=0.992;entryDx=0;entryDy=0;entryPerimeter=0;" edge="1" parent="hFkE5j2ccfjkZ-3ddx9P-1" source="kLzKTiCbfdV_G4Um-5X8-24" target="kLzKTiCbfdV_G4Um-5X8-28">
          <mxGeometry relative="1" as="geometry" />
        </mxCell>
        <mxCell id="kLzKTiCbfdV_G4Um-5X8-32" style="edgeStyle=orthogonalEdgeStyle;rounded=0;orthogonalLoop=1;jettySize=auto;html=1;exitX=1;exitY=0.5;exitDx=0;exitDy=0;entryX=0.667;entryY=0;entryDx=0;entryDy=0;entryPerimeter=0;" edge="1" parent="hFkE5j2ccfjkZ-3ddx9P-1" source="kLzKTiCbfdV_G4Um-5X8-9" target="kLzKTiCbfdV_G4Um-5X8-28">
          <mxGeometry relative="1" as="geometry" />
        </mxCell>
      </root>
    </mxGraphModel>
  </diagram>
</mxfile>
